<svg width="672" height="403" viewBox="0 0 672 403" fill="none" xmlns="http://www.w3.org/2000/svg"><path d="M6.354 264.548l-.434 1.027v59.615h112.36v67.31h68.24v-67.31h27.56v-64h-27.56V10.5h-72.746l-1.42 3.358-106 250.69zm346.34-187.546l.122.13.129.12c3.962 3.714 6.742 11.126 6.742 24.078v200.34c0 12.902-2.76 20.621-6.869 24.731-4.045 4.045-9.763 6.339-17.841 6.339-7.985 0-13.93-2.246-18.365-6.338-3.787-4.141-6.345-11.892-6.345-24.732V101.33c0-13.025 2.632-20.495 6.339-24.2 4.466-4.467 10.407-6.87 18.371-6.87 7.972 0 13.649 2.403 17.717 6.742zm51.979 294.188l.021-.022.021-.022c16.438-17.585 24.272-42.255 24.272-73.186V105.04c0-30.91-7.824-55.43-24.293-72.678-16.51-17.648-40.048-26.102-69.717-26.102-29.67 0-53.207 8.454-69.717 26.102-16.469 17.248-24.293 41.769-24.293 72.678v192.92c0 30.931 7.834 55.601 24.272 73.186l.02.022.021.022c16.519 17.287 40.05 25.55 69.697 25.55 29.647 0 53.177-8.263 69.696-25.55zm53.755-106.642l-.435 1.027v59.615h112.36v67.31h68.241v-67.31h27.56v-64h-27.56V10.5h-72.746l-1.42 3.358-106 250.69zM118.28 261.19H73.241l45.039-106.714V261.19zm407.035 0l45.038-106.714V261.19h-45.038z" fill="#fff" stroke="#fff" stroke-width="11"/></svg>