<svg width="99" height="11" viewBox="0 0 99 11" fill="none" xmlns="http://www.w3.org/2000/svg"><path fill-rule="evenodd" clip-rule="evenodd" d="M94.638 6.176c0-.477-.027-1.06-.35-1.06-.487 0-.946.768-.946 1.06v4.479h-3.053v-4.48c0-.715-.08-1.06-.378-1.06-.541 0-1 .769-1 1.06v4.48h-2.998V6.122c0-.768-.027-1.881-.757-2.226.27-.344 1.08-.769 1.837-.769.891 0 1.567.53 1.918 1.432.567-.849 1.189-1.458 2.296-1.458 1.054 0 1.621.636 1.946 1.564.675-.928 1.404-1.564 2.431-1.564 1.73 0 2.08 1.378 2.08 3.26v1.696c0 .743.054 1.485.838 2.042-.568.741-1.297.901-1.918.901-.622 0-1.946-.265-1.946-1.882V6.176zM33.635 4.904V3.499h.73c0-.69.216-2.412 3.106-2.412v2.412h1.784c2.54 0 3.62.185 3.62 2.385v4.77H39.85V6.68c0-1.431-.594-1.775-1.783-1.775h-.595V8.19c0 1.166.379 1.909 1.649 1.909-.568.636-1.46.901-2.108.901-1.27 0-2.62-.61-2.62-3.129V4.904h-.757zM9.401 7.474C9.078 9.755 7.078 11 5.214 11 2.324 11 0 8.8 0 5.46 0 2.36 2.134 0 5.512 0c1.566 0 3.592.769 3.592 2.624 0 1.034-.81 1.723-1.647 1.723-2.08 0-1.243-2.227-2.351-2.227-.676 0-1.756.848-1.756 3.34 0 2.253 1.351 3.472 2.864 3.472 1.27 0 2.188-.556 3.187-1.457zM29.961 3.5h3v4.558c0 .743.053 1.485.836 2.042-.567.741-1.296.901-1.917.901-.622 0-1.594-.24-1.946-1.22-.702 1.034-1.567 1.22-2.324 1.22-1.81 0-2.755-1.776-2.755-3.976 0-2.12.973-3.897 2.783-3.897.918 0 1.62.292 2.323 1.087V3.5zm0 2.146c-.162-.37-.702-.689-1.053-.689-.865 0-1.135 1.326-1.135 2.227 0 .98.297 1.935 1.188 1.935.487 0 .784-.265.973-.61l.027-2.863zM46.55 3.5v4.479c0 .583.054 1.272.594 1.272 1.136 0 1.432-1.802 1.432-2.677 0-1.086-.432-2.279-1.242-2.597 0-.477.621-1.246 1.62-1.246 1.676 0 2.405 1.51 2.405 3.128 0 3.18-1.918 5.142-4.242 5.142-1.999 0-3.54-.981-3.54-2.995V3.499h2.973zM19.641 8.243c.135.584.892 1.22 2.107 1.22a4.39 4.39 0 0 0 2.27-.663c-.568 1.484-1.756 2.2-3.216 2.2-2.566 0-4.187-1.538-4.187-3.976 0-2.148 1.621-3.897 4.269-3.897 1.945 0 3.404 1.06 3.404 2.65 0 1.114-.838 2.466-3.107 2.466h-1.54zm.756-1.272c.757 0 1.243-.557 1.243-1.22 0-.61-.432-.9-.891-.9-.568 0-1.216.556-1.216 2.12h.864zM13.103 4.56c.621-1.007 1.297-1.432 1.945-1.432.838 0 1.54.663 1.54 1.565 0 1.007-.73 1.669-1.459 1.669-1 0-1.35-.768-1.513-1.166l-.46.45v5.01h-3.052V6.122c0-.768-.027-1.881-.756-2.226.27-.344 1.08-.769 1.837-.769.891 0 1.567.53 1.918 1.432zm26.233-3.154c0 .715.783 1.298 1.756 1.298.972 0 1.783-.583 1.783-1.298 0-.716-.81-1.299-1.783-1.299-.973 0-1.756.583-1.756 1.299zm27.097 3.499V8.19c0 1.166.378 1.909 1.648 1.909-.567.636-1.459.901-2.107.901-1.27 0-2.62-.61-2.62-3.129V4.904h-.757V3.499h.73c0-.69.215-2.412 3.106-2.412v2.412h1.459v1.405h-1.459zm-11.536 3.34c.136.583.892 1.218 2.107 1.218a4.39 4.39 0 0 0 2.27-.662c-.568 1.484-1.756 2.2-3.215 2.2-2.567 0-4.188-1.538-4.188-3.976 0-2.148 1.621-3.897 4.27-3.897 1.944 0 3.403 1.06 3.403 2.65 0 1.114-.837 2.466-3.106 2.466h-1.54zm.757-1.273c.756 0 1.242-.557 1.242-1.22 0-.61-.432-.9-.891-.9-.568 0-1.216.556-1.216 2.12h.865zm15.67 1.272c.134.584.89 1.22 2.106 1.22A4.39 4.39 0 0 0 75.7 8.8c-.567 1.484-1.756 2.2-3.215 2.2-2.567 0-4.188-1.538-4.188-3.976 0-2.148 1.621-3.897 4.269-3.897 1.945 0 3.404 1.06 3.404 2.65 0 1.114-.837 2.466-3.107 2.466h-1.54zm.756-1.272c.756 0 1.242-.557 1.242-1.22 0-.61-.432-.9-.891-.9-.567 0-1.216.556-1.216 2.12h.865zm9.4-3.472h2.999v4.558c0 .743.054 1.485.837 2.042-.566.741-1.296.901-1.918.901-.62 0-1.593-.24-1.945-1.22-.702 1.034-1.566 1.22-2.323 1.22-1.81 0-2.756-1.776-2.756-3.976 0-2.12.973-3.897 2.783-3.897.919 0 1.62.292 2.323 1.087V3.5zm0 2.146c-.162-.37-.703-.689-1.053-.689-.864 0-1.135 1.326-1.135 2.227 0 .98.297 1.935 1.189 1.935.486 0 .783-.265.972-.61l.027-2.863z" fill="#fff"/></svg>